<svg width="77" height="18" viewBox="0 0 77 18" fill="none" xmlns="http://www.w3.org/2000/svg">
<g filter="url(#filter0_d_4776_31591)">
<path d="M75.0937 6.64128C75.0686 6.34952 74.9862 6.06137 74.8486 5.78456C74.7308 5.55486 74.5636 5.33833 74.3527 5.14201C74.0258 4.84044 73.6092 4.58933 73.13 4.40515C72.9232 4.32082 72.7084 4.24598 72.487 4.18114C72.2678 4.12416 72.0487 4.07897 71.8296 4.03377C70.9628 3.90329 70.0701 3.87208 69.1883 3.94142C67.438 4.05146 65.7108 4.35799 63.9979 4.45428C63.1391 4.51167 62.2729 4.4892 61.423 4.38747C60.554 4.28001 59.6952 4.13763 58.8509 3.96107C57.141 3.61131 55.4339 3.17508 53.7326 2.72903C52.0314 2.28299 50.333 1.79373 48.6 1.41449C48.1677 1.32644 47.7248 1.26464 47.2765 1.22979C46.8382 1.1846 46.4114 1.16887 45.9616 1.15119C45.0965 1.11975 44.2113 1.11779 43.3376 1.12958C41.593 1.15119 39.8485 1.24354 38.1069 1.37126C36.3652 1.49899 34.6265 1.67191 32.8877 1.89198C31.1252 2.10354 29.3898 2.40903 27.6974 2.80567C25.9673 3.24975 24.2977 3.80389 22.5993 4.24994C21.7683 4.46945 20.9155 4.6487 20.0474 4.78637C19.2017 4.91788 18.337 4.98379 17.4696 4.98286C16.598 4.98142 15.7287 4.92152 14.8744 4.80404C14.4447 4.74313 14.0094 4.68418 13.5884 4.60755C13.1674 4.53092 12.7233 4.43857 12.3052 4.34622C10.5751 3.9827 8.87957 3.57005 7.16388 3.18295C6.29883 2.98646 5.43377 2.80568 4.56872 2.67207C4.34957 2.63866 4.13332 2.61507 3.91417 2.58756C3.69503 2.56005 3.47587 2.54631 3.25672 2.54827H2.92511L2.59352 2.57972C2.47936 2.59357 2.36803 2.61665 2.26191 2.64849C2.14285 2.67728 2.03245 2.72056 1.93607 2.77622L1.85534 2.81551C1.82632 2.83586 1.79934 2.85752 1.77459 2.88034C1.72263 2.93514 1.68005 2.99382 1.64772 3.05523C1.5801 3.18724 1.5318 3.32349 1.50354 3.46199C1.44796 3.74209 1.4181 4.02427 1.41415 4.3069C1.39974 4.87085 1.43147 5.4289 1.4776 5.98302C1.57852 7.09322 1.74289 8.18574 1.93032 9.27236C2.11774 10.359 2.334 11.4338 2.57045 12.5086C2.80689 13.5835 3.05489 14.6446 3.37496 15.6821C3.49451 16.1119 3.84513 16.4959 4.35823 16.7589C4.73982 16.9385 5.18468 17.0456 5.64715 17.0693C6.55799 17.1076 7.46404 16.9539 8.24231 16.6292C8.6899 16.4525 9.09779 16.2328 9.45339 15.9768C9.6552 15.8311 9.83849 15.674 10.0013 15.5072C10.1743 15.3284 10.3271 15.1279 10.4828 14.9373C11.0803 14.1874 11.7368 13.4599 12.4494 12.7582C13.0817 12.122 13.8199 11.5377 14.6495 11.0172C15.34 10.5697 16.1819 10.2451 17.1005 10.0721C17.9537 9.93007 18.8541 10.0114 19.6236 10.3C20.0571 10.4975 20.4351 10.7464 20.7395 11.0349C20.9123 11.1966 21.1052 11.3478 21.3162 11.4869C21.5073 11.6103 21.7594 11.6804 22.0226 11.6834C22.5157 11.6716 22.9367 11.4338 23.3462 11.2118C23.5451 11.0899 23.7527 10.9583 23.9402 10.8542C24.1208 10.7398 24.3135 10.6347 24.5169 10.5398C25.2834 10.183 26.1189 9.90063 26.9996 9.70073C28.6579 9.31245 30.3962 9.10619 32.1495 9.08963C33.0127 9.07809 33.8752 9.13079 34.7216 9.24682C34.9358 9.27341 35.1462 9.31286 35.3502 9.36471L35.6617 9.43938L35.95 9.54746L36.2758 9.66535C36.3874 9.70334 36.5043 9.73362 36.6248 9.75574C36.8449 9.79555 37.0697 9.82251 37.2966 9.8363C38.1744 9.87893 39.0559 9.87237 39.9321 9.81666C40.7972 9.77343 41.6622 9.71447 42.5273 9.65552C44.2574 9.53369 46.0019 9.3942 47.7349 9.3549C48.6005 9.33038 49.4676 9.34614 50.3301 9.40206C50.7628 9.43015 51.1918 9.48073 51.6132 9.55336C52.0519 9.62369 52.4721 9.73968 52.8589 9.89723C52.9627 9.93594 53.0594 9.98276 53.1473 10.0367L53.2915 10.1153L53.4212 10.2136L53.551 10.3099L53.6865 10.4297L53.9748 10.6655C54.3191 10.9602 54.7162 11.2243 55.1571 11.4515C55.5356 11.6543 55.9924 11.7779 56.472 11.8072C56.9273 11.8099 57.3784 11.7469 57.7955 11.6224C58.6606 11.3827 59.4852 11.0487 60.3244 10.7618C61.1635 10.4749 62.0054 10.192 62.8503 9.94635C63.6952 9.70073 64.5545 9.51405 65.408 9.63391C66.2615 9.75377 67.0977 10.076 67.9426 10.3492C68.3695 10.4908 68.7853 10.6476 69.1883 10.8188C69.6221 11.0004 70.0178 11.2211 70.3647 11.4751C70.7787 11.7824 71.0922 12.1461 71.2846 12.5421C71.5079 13.034 71.6054 13.5485 71.5729 14.0629C71.5729 14.3459 71.5729 14.6288 71.6018 14.9177C71.6156 15.0635 71.6436 15.2086 71.6854 15.352C71.7058 15.5001 71.8005 15.6389 71.9536 15.745C71.9867 15.7604 72.0259 15.7687 72.066 15.7687C72.1062 15.7687 72.1454 15.7604 72.1785 15.745C72.247 15.7147 72.3059 15.6752 72.3515 15.629C72.4535 15.5312 72.5387 15.4257 72.6052 15.3146C72.7505 15.08 72.8729 14.8391 72.9714 14.5935C73.1791 14.0924 73.3434 13.5697 73.4904 13.0412C73.6375 12.5126 73.75 11.9801 73.9086 11.4692C74.1969 10.4356 74.6006 9.44332 74.8861 8.36849C75.0559 7.80043 75.1256 7.22059 75.0937 6.64128ZM74.6323 8.25059C74.3699 9.28809 73.9893 10.2961 73.6923 11.3493C73.5366 11.874 73.4213 12.4202 73.2886 12.939C73.156 13.4577 73.0003 13.9745 72.7955 14.4579C72.7054 14.6887 72.5926 14.9152 72.4582 15.1358C72.403 15.23 72.3324 15.3196 72.2477 15.403C72.1727 15.4718 72.0891 15.5131 72.0401 15.4836C71.9576 15.4193 71.9072 15.3388 71.8959 15.2537C71.8603 15.1304 71.8362 15.0057 71.8238 14.8804C71.7921 14.619 71.7892 14.3459 71.795 14.0728C71.8265 13.51 71.7163 12.9478 71.4691 12.4104C71.2622 11.9847 70.9239 11.5941 70.4772 11.2648C70.1195 11.0052 69.711 10.7803 69.2632 10.5967C68.8566 10.4252 68.4359 10.2697 68.0032 10.131C67.1612 9.86774 66.3249 9.52388 65.4455 9.40206C64.566 9.28023 63.675 9.46494 62.8243 9.6968C61.9737 9.92867 61.1288 10.2136 60.2869 10.4965C59.4449 10.7795 58.6087 11.1096 57.7667 11.3257C57.3641 11.4365 56.9318 11.4881 56.4979 11.477C56.0488 11.4395 55.6246 11.3155 55.2753 11.1194C54.8571 10.8899 54.4823 10.6259 54.1594 10.3334L53.897 10.0976L53.7644 9.97974L53.6144 9.86185C53.5654 9.82452 53.5164 9.78326 53.4645 9.74592L53.3087 9.65749C53.212 9.59605 53.1056 9.54202 52.9916 9.49637C52.5902 9.32201 52.1528 9.18955 51.694 9.10338C51.2641 9.01992 50.8255 8.95882 50.382 8.92063C49.5116 8.84716 48.635 8.81368 47.758 8.82041C46.0106 8.82041 44.2689 8.92259 42.5302 9.01691C41.6651 9.07193 40.8001 9.125 39.935 9.16234C39.0714 9.21079 38.2035 9.21079 37.3399 9.16234C37.1284 9.14827 36.9191 9.12197 36.7141 9.08373C36.6145 9.06492 36.5178 9.03924 36.4258 9.0071L36.1374 8.89508L35.8029 8.77129L35.4713 8.68878C35.257 8.6335 35.036 8.59077 34.811 8.56105C33.9425 8.43993 33.0553 8.39242 32.1697 8.41958C30.3844 8.45968 28.6194 8.69041 26.939 9.10338C26.0275 9.3183 25.1683 9.62495 24.39 10.0132C24.1746 10.1193 23.9704 10.2355 23.7787 10.361C23.5711 10.4867 23.3894 10.6066 23.202 10.7304C22.8214 10.9524 22.4234 11.1764 22.0486 11.1902C21.6737 11.2039 21.3191 10.9563 20.9528 10.6419C20.6194 10.3433 20.2102 10.0878 19.7447 9.8874C18.9244 9.60316 17.9768 9.54069 17.0918 9.71251C16.1462 9.91485 15.2864 10.2701 14.586 10.748C13.7537 11.2969 13.0147 11.908 12.3831 12.5696C11.6968 13.2652 11.0566 14.0217 10.4309 14.7978C10.2752 14.9943 10.1224 15.1908 9.95801 15.3618C9.80106 15.5265 9.62355 15.6816 9.42745 15.8255C9.07893 16.0803 8.67891 16.3 8.23944 16.4779C7.47557 16.805 6.58295 16.9648 5.68177 16.9357C5.22819 16.9167 4.79025 16.8156 4.41302 16.6429C3.91789 16.3956 3.57805 16.0299 3.46146 15.6192C3.14716 14.5856 2.91359 13.5128 2.68002 12.4458C2.44646 11.3788 2.24172 10.2961 2.06006 9.20949C1.8784 8.12287 1.72269 7.03231 1.6333 5.93193C1.58717 5.38174 1.55834 4.82762 1.5814 4.27939C1.58924 4.01174 1.62103 3.74468 1.67656 3.47966C1.74289 3.23011 1.83227 2.99038 2.03123 2.93143C2.21168 2.84262 2.42179 2.78589 2.64253 2.76638L2.9626 2.7428H3.28268C3.49895 2.7428 3.71232 2.78014 3.92859 2.79783C4.14485 2.81551 4.35823 2.86071 4.57161 2.89804C5.43666 3.05327 6.28442 3.25958 7.13794 3.47376C8.84498 3.90212 10.5463 4.36783 12.2591 4.78243C13.9719 5.19704 15.7193 5.55073 17.4753 5.56842C18.3605 5.58324 19.2454 5.53117 20.1138 5.41318C20.9952 5.28774 21.8625 5.11965 22.7089 4.91016C23.574 4.69794 24.4217 4.46608 25.2723 4.22046C26.123 3.97484 26.9736 3.71154 27.8127 3.51111C29.4916 3.12361 31.2126 2.82664 32.9598 2.62294C36.3947 2.20188 39.8697 1.95035 43.3577 1.87035C44.2228 1.85266 45.0878 1.84873 45.9529 1.87035C46.3825 1.8841 46.818 1.89591 47.2447 1.93717C47.4589 1.94983 47.6717 1.97148 47.882 2.00201C48.0951 2.02789 48.306 2.06201 48.5135 2.10419C50.2176 2.46378 51.9218 2.94519 53.6288 3.37748C55.3359 3.80977 57.0487 4.24402 58.7788 4.57217C59.6364 4.73848 60.5078 4.86971 61.3884 4.96516C62.2615 5.05742 63.1489 5.06933 64.0268 5.00054C65.78 4.88264 67.5072 4.55056 69.2171 4.41105C70.0717 4.32686 70.941 4.34013 71.7892 4.45034C71.9997 4.49161 72.2102 4.53091 72.4207 4.58004C72.6319 4.63712 72.838 4.70273 73.0378 4.77653C73.4788 4.93873 73.8657 5.16153 74.1739 5.43086C74.5552 5.78802 74.7738 6.21379 74.8025 6.65505C74.8387 7.18961 74.7816 7.72521 74.6323 8.25059Z" fill="#60A5FA"/>
<path d="M3.4039 15.6566C4.11036 17.8181 8.55962 17.2286 10.1773 15.1988C11.7949 13.169 14.6381 9.72637 18.1185 9.81283C21.5989 9.89929 20.6935 12.7446 23.6664 10.7285C26.6393 8.71246 34.0182 8.26836 36.1981 9.29014C38.378 10.3119 51.0914 7.75553 53.6722 10.1449C56.2529 12.5343 57.2852 11.6285 60.7714 10.475C64.2576 9.32159 64.9006 9.20763 67.0747 9.93859C69.2489 10.6696 71.7806 11.2905 71.6884 14.0021C71.5961 16.7138 72.7063 15.9415 73.5425 12.383C74.3787 8.82445 76.2789 6.19142 73.4906 4.79041C70.7022 3.38939 66.9594 4.70788 63.0869 4.79041C59.2143 4.87293 51.6653 2.40101 48.3809 1.74275C45.0966 1.08449 32.3111 1.84099 27.0199 3.35597C21.7286 4.87096 18.7615 6.02242 13.0175 4.74716C7.27357 3.4719 3.21359 2.0709 1.89006 2.89618C0.566524 3.72146 2.78971 13.7938 3.4039 15.6566Z" fill="#DBEAFE"/>
<path d="M73.4963 4.79041C70.7079 3.38939 66.9651 4.70788 63.0926 4.79041C59.22 4.87293 51.671 2.40101 48.3866 1.74275C45.1023 1.08449 32.3168 1.84099 27.0256 3.35597C21.7343 4.87096 18.7672 6.02242 13.0232 4.74716C7.27927 3.4719 3.21929 2.0709 1.89576 2.89618C1.23544 3.30489 1.41709 5.96545 1.9563 8.59457C2.62318 9.05029 3.17901 9.57564 3.6028 10.1508C4.46785 11.2905 5.82887 11.0508 6.48631 11.0429C7.14375 11.035 5.43671 7.71426 5.79714 6.30538C6.15758 4.89651 8.19334 5.80039 8.82195 5.18143C9.45055 4.56247 10.8087 4.99671 15.3099 6.24642C19.811 7.49614 17.1957 6.41738 18.1184 6.20123C19.0411 5.98509 21.0682 6.48027 22.3254 6.97347C23.5827 7.46668 25.4714 6.91254 26.0538 5.77483C26.6363 4.63712 31.2788 3.82167 31.668 3.45226C32.0573 3.08284 33.1098 3.01996 33.3607 3.45226C33.6115 3.88455 33.9893 4.50154 34.5342 4.63123C35.0792 4.76092 34.9581 3.51905 35.878 2.77826C36.7978 2.03747 37.7638 3.27148 38.8797 4.01423C39.9956 4.75699 41.4922 5.31111 43.8134 6.62567C46.1346 7.94023 48.3146 5.80628 51.0222 4.63123C53.7298 3.45619 54.5083 5.8102 56.9276 6.93416C59.3469 8.05812 59.5401 7.41164 60.6531 6.93416C61.7662 6.45667 63.0262 6.79465 64.8169 6.93416C66.6076 7.07367 69.0759 6.42329 70.4196 6.23858C71.7633 6.05387 72.3659 7.16408 73.479 8.03062C74.1422 8.54544 74.6324 8.0758 74.9438 7.32322C75.0418 6.25624 74.7189 5.40347 73.4963 4.79041Z" fill="#EFF6FF"/>
<path d="M72.5157 11.3689C72.0313 10.5122 72.1754 9.26052 71.296 8.86949C70.4165 8.47846 70.0935 9.69283 68.0837 9.18194C66.0739 8.67105 65.0618 8.95006 63.4153 8.84591C61.7688 8.74177 60.5606 9.75373 59.0122 10.0013C57.4638 10.2489 57.0283 9.56902 56.7371 8.33306C56.4459 7.0971 55.4799 10.4945 54.8484 10.0013C54.2169 9.50811 52.9626 7.83986 52.4781 7.15802C51.9937 6.47618 51.7025 7.8379 50.7826 8.27019C49.8628 8.70248 45.5577 8.14836 43.3317 8.58852C41.1056 9.02867 39.7503 8.95007 38 8.58852C36.2497 8.22696 36.5064 8.20927 33.2163 8.08547C29.9262 7.96168 27.0196 8.82626 25.7192 8.84591C24.4187 8.86556 24.1217 8.95006 22.9596 8.58065C21.7976 8.21124 21.8466 10.7421 21.4112 10.2214C20.9758 9.70067 20.0098 9.43542 18.3633 9.38237C16.7168 9.32931 16.1372 9.50616 14.3812 9.18587C12.6251 8.86558 12.7981 9.57886 11.9734 11.0467C11.1488 12.5145 10.5721 13.2081 8.87655 12.5754C7.18105 11.9427 7.81254 15.1299 5.83445 15.6604C4.80504 15.9335 3.91981 15.6466 3.30273 15.3087C3.34022 15.4443 3.3777 15.5661 3.40942 15.6604C4.11588 17.8219 8.56514 17.2324 10.1828 15.2026C11.8004 13.1728 14.6436 9.73016 18.124 9.81662C21.6044 9.90307 20.699 12.7483 23.6719 10.7323C26.6448 8.71624 34.0237 8.27215 36.2036 9.29393C38.3835 10.3157 51.097 7.75929 53.6777 10.1487C56.2584 12.5381 57.2907 11.6322 60.7769 10.4788C64.2631 9.32537 64.9061 9.21141 67.0803 9.94238C69.2544 10.6733 71.7862 11.2943 71.6939 14.0059C71.6016 16.7175 72.7118 15.9453 73.548 12.3868C73.9402 10.7264 74.563 9.26642 74.8311 8.03832C73.9719 9.81464 72.8098 11.8916 72.5157 11.3689Z" fill="#BFDBFE"/>
<path d="M6.13724 3.51297C4.40713 3.17303 3.0144 2.53048 2.55592 3.20446C2.09744 3.87844 1.16318 6.32482 2.91347 5.7373C4.66377 5.14977 7.70875 4.16532 8.53344 4.62512C9.35812 5.08492 10.9296 5.55259 11.5582 5.39736C12.1868 5.24213 6.13724 3.51297 6.13724 3.51297Z" fill="white"/>
<path d="M28.132 3.42081C26.8027 3.60551 24.3084 5.02226 23.0022 5.14802C21.6959 5.27377 23.4866 6.83396 25.3263 6.28574C27.166 5.73751 29.5362 4.34826 29.8015 3.76074C30.0668 3.17322 28.132 3.42081 28.132 3.42081Z" fill="white"/>
<path d="M48.3802 1.74254C46.3618 1.54605 43.5965 1.3299 42.2181 1.74254C40.8398 2.15518 41.6847 3.35969 42.8698 3.88433C44.0549 4.40897 45.243 3.50313 46.6184 3.36951C47.9938 3.23589 48.6023 3.45206 50.3439 3.63677C52.0855 3.82147 52.8381 4.05921 52.57 3.36951C52.3018 2.67981 49.5769 1.85062 48.3802 1.74254Z" fill="white"/>
<path d="M70.7254 4.24592C69.6354 4.30291 68.0379 4.86291 68.5714 5.38952C69.1048 5.91613 71.5212 4.77056 72.4411 5.38952C73.3609 6.00848 74.6671 6.37201 74.2317 5.66659C73.7963 4.96117 71.9105 4.18501 70.7254 4.24592Z" fill="white"/>
</g>
<defs>
<filter id="filter0_d_4776_31591" x="0.986916" y="0.91106" width="75.449" height="16.7996" filterUnits="userSpaceOnUse" color-interpolation-filters="sRGB">
<feFlood flood-opacity="0" result="BackgroundImageFix"/>
<feColorMatrix in="SourceAlpha" type="matrix" values="0 0 0 0 0 0 0 0 0 0 0 0 0 0 0 0 0 0 127 0" result="hardAlpha"/>
<feOffset dy="0.211864"/>
<feGaussianBlur stdDeviation="0.211864"/>
<feComposite in2="hardAlpha" operator="out"/>
<feColorMatrix type="matrix" values="0 0 0 0 0 0 0 0 0 0 0 0 0 0 0 0 0 0 0.25 0"/>
<feBlend mode="normal" in2="BackgroundImageFix" result="effect1_dropShadow_4776_31591"/>
<feBlend mode="normal" in="SourceGraphic" in2="effect1_dropShadow_4776_31591" result="shape"/>
</filter>
</defs>
</svg>
